<svg width="34" height="34" viewBox="0 0 34 34" fill="none" xmlns="http://www.w3.org/2000/svg">
<rect width="34" height="34" rx="4" fill="#704407"/>
<path d="M11.1353 23.6832L9.4625 21.6759L10.7416 20.1409C9.75762 19.2907 9.04914 18.039 8.75402 16.5985C8.4194 14.9218 8.75402 13.2452 9.65933 12.0407C9.71838 11.9698 9.77744 11.899 9.8168 11.8281C11.6077 9.67899 14.6188 9.84436 16.5473 12.1588L16.9802 12.6783L17.4131 12.1588C19.3418 9.84435 22.3529 9.70278 24.1435 11.8517C24.2026 11.9226 24.2616 11.9935 24.301 12.0643C25.2063 13.2924 25.5408 14.9455 25.2063 16.6222C24.9307 18.0626 24.2026 19.3144 23.2187 20.1645L24.4584 21.6522L22.7856 23.6596L20.9554 21.4633L18.4757 22.6441C17.5113 23.1165 16.429 23.1165 15.4647 22.6441L12.985 21.4633L11.1353 23.6832ZM14.8351 19.2669L16.3702 19.9989C16.7834 20.1879 17.2164 20.1879 17.6296 19.9989L19.1646 19.2669L16.9999 16.6692L14.8351 19.2669ZM12.9656 13.1267C12.4146 13.1267 11.9028 13.363 11.5093 13.8115L11.4306 13.906C10.8993 14.6144 10.978 15.4882 11.0566 15.937C11.2338 16.858 11.7651 17.6373 12.4539 18.0861L15.3271 14.6383L14.8942 14.1188C14.3432 13.4809 13.6347 13.1267 12.9656 13.1267ZM18.673 14.6617L21.5266 18.1096C22.2351 17.6608 22.7467 16.8815 22.9239 15.9605C23.0223 15.5117 23.0813 14.6379 22.5499 13.9295C22.5302 13.9059 22.5105 13.8586 22.4711 13.835C21.6052 12.7959 20.0702 12.9376 19.0665 14.1421L18.673 14.6617ZM20.2081 12.489C20.464 12.489 20.464 12.0166 20.2081 12.0166C19.9522 12.0167 19.9522 12.489 20.2081 12.489ZM21.2313 11.2374C21.4872 11.2374 21.4872 10.765 21.2313 10.765C20.9756 10.765 20.9756 11.2374 21.2313 11.2374ZM18.791 12.489C19.0469 12.489 19.0469 12.0166 18.791 12.0166C18.5352 12.0167 18.5352 12.489 18.791 12.489ZM24.4589 15.2993C24.7148 15.2993 24.7148 14.8269 24.4589 14.8269C24.2032 14.827 24.2032 15.2993 24.4589 15.2993ZM22.983 12.3708C23.2389 12.3708 23.2389 11.8984 22.983 11.8984C22.7271 11.8986 22.7271 12.3708 22.983 12.3708ZM24.1442 16.9289C24.4001 16.9289 24.4001 16.4565 24.1442 16.4565C23.8883 16.4565 23.8883 16.9289 24.1442 16.9289ZM23.3176 19.7155C23.5735 19.7155 23.5735 19.2431 23.3176 19.2431C23.0617 19.2431 23.0617 19.7155 23.3176 19.7155ZM20.7592 18.1804C21.0151 18.1804 21.0151 17.708 20.7592 17.708C20.523 17.7082 20.523 18.1804 20.7592 18.1804ZM18.732 17.1413C18.9879 17.1413 18.9879 16.6689 18.732 16.6689C18.4763 16.669 18.4763 17.1413 18.732 17.1413ZM17.9055 14.2837C18.1614 14.2837 18.1614 13.8113 17.9055 13.8113C17.6497 13.8115 17.6497 14.2837 17.9055 14.2837ZM15.0716 11.8513C15.3275 11.8513 15.3275 11.3789 15.0716 11.3789C14.8157 11.3791 14.8157 11.8513 15.0716 11.8513ZM12.4738 11.5206V11.497C12.4738 11.1899 12.0801 11.1899 12.0801 11.497V11.5206C12.0803 11.8277 12.4738 11.8277 12.4738 11.5206ZM10.683 13.9532C10.9389 13.9532 10.9389 13.4808 10.683 13.4808C10.4271 13.4808 10.4271 13.9532 10.683 13.9532ZM14.9533 16.2675C15.2092 16.2675 15.2092 15.7951 14.9533 15.7951C14.6976 15.7953 14.6976 16.2675 14.9533 16.2675ZM9.75801 15.6535C10.0139 15.6535 10.0139 15.1811 9.75801 15.1811C9.50212 15.1813 9.50212 15.6535 9.75801 15.6535ZM13.1428 12.2529C13.3987 12.2529 13.3987 11.7805 13.1428 11.7805C12.8871 11.7805 12.8871 12.2529 13.1428 12.2529ZM13.8121 19.0779C14.068 19.0779 14.068 18.6055 13.8121 18.6055C13.5562 18.6056 13.5562 19.0779 13.8121 19.0779ZM11.5684 22.5731C11.8243 22.5731 11.8243 22.1007 11.5684 22.1007C11.3127 22.1007 11.3127 22.5731 11.5684 22.5731ZM14.8157 20.802C15.0716 20.802 15.0716 20.3296 14.8157 20.3296C14.5796 20.3296 14.5796 20.802 14.8157 20.802ZM19.2438 20.5894C19.4997 20.5894 19.4997 20.117 19.2438 20.117C18.9879 20.117 18.9879 20.5894 19.2438 20.5894ZM21.1723 20.2351C21.4282 20.2351 21.4282 19.7627 21.1723 19.7627C20.9166 19.7629 20.9166 20.2351 21.1723 20.2351ZM23.0026 21.6994C23.2585 21.6994 23.2585 21.227 23.0026 21.227C22.7467 21.227 22.7467 21.6994 23.0026 21.6994ZM22.7664 22.7857C23.0223 22.7857 23.0223 22.3133 22.7664 22.3133C22.5304 22.3133 22.5304 22.7857 22.7664 22.7857ZM22.2745 19.0072C22.5303 19.0072 22.5303 18.5348 22.2745 18.5348C22.0186 18.5348 22.0186 19.0072 22.2745 19.0072ZM9.62016 17.7319C9.87605 17.7319 9.87605 17.2595 9.62016 17.2595C9.36427 17.2595 9.36427 17.7319 9.62016 17.7319ZM11.6472 18.7001C11.903 18.7001 11.903 18.2277 11.6472 18.2277C11.3914 18.2277 11.3914 18.7001 11.6472 18.7001ZM10.86 12.3945C11.1159 12.3945 11.1159 11.9221 10.86 11.9221C10.6042 11.9223 10.6042 12.3945 10.86 12.3945ZM11.9818 20.6131C12.2377 20.6131 12.2377 20.1407 11.9818 20.1407C11.7259 20.1407 11.7259 20.6131 11.9818 20.6131ZM17.6103 22.03C17.8662 22.03 17.8662 21.5576 17.6103 21.5576C17.3741 21.5577 17.3544 22.03 17.6103 22.03ZM15.8391 21.7939C16.095 21.7939 16.095 21.3215 15.8391 21.3215C15.5832 21.3215 15.5832 21.7939 15.8391 21.7939ZM18.1416 20.8965C18.3975 20.8965 18.3975 20.4241 18.1416 20.4241C17.9054 20.4241 17.9054 20.8965 18.1416 20.8965ZM16.5475 15.0395C16.8034 15.0395 16.8034 14.5671 16.5475 14.5671C16.2918 14.5671 16.2918 15.0395 16.5475 15.0395ZM15.6422 13.1266C15.8981 13.1266 15.8981 12.6542 15.6422 12.6542C15.3865 12.6542 15.3865 13.1266 15.6422 13.1266Z" fill="white"/>
</svg>
