<svg width="34" height="34" viewBox="0 0 34 34" fill="none" xmlns="http://www.w3.org/2000/svg">
<rect width="34" height="34" rx="4" fill="#704407"/>
<g clip-path="url(#clip0_302_894)">
<path d="M15.242 23.9439H16.4215V25.3591C16.4216 25.5505 16.5509 25.7056 16.7103 25.7056H18.4474C18.6068 25.7054 18.7359 25.5505 18.7361 25.3591V23.9439H19.9251C20.0017 23.9441 20.0752 23.9075 20.1294 23.8427C20.1836 23.7777 20.2139 23.6896 20.2139 23.5977V21.5204C20.2139 21.4284 20.1836 21.3402 20.1294 21.2754C20.0752 21.2104 20.0017 21.1739 19.9251 21.1739H18.7361V19.7589C18.7361 19.6671 18.7057 19.5789 18.6516 19.514C18.5974 19.449 18.524 19.4126 18.4474 19.4126H16.7103C16.5509 19.4126 16.4216 19.5675 16.4215 19.7588V21.1741H15.242C15.1654 21.1741 15.092 21.2105 15.0378 21.2755C14.9836 21.3405 14.9531 21.4286 14.9531 21.5205V23.5978C14.9531 23.6897 14.9836 23.7778 15.0378 23.8428C15.092 23.9078 15.1654 23.9442 15.242 23.9442L15.242 23.9439ZM15.5307 21.8666H16.7103C16.8696 21.8666 16.9989 21.7117 16.999 21.5205V20.1048H18.1587V21.5198C18.1586 21.6118 18.1891 21.7 18.2432 21.765C18.2974 21.83 18.3708 21.8665 18.4474 21.8665H19.6364V23.2504H18.4474C18.288 23.2504 18.1587 23.4056 18.1587 23.597V25.012H16.999V23.5977C16.999 23.4064 16.8698 23.2513 16.7103 23.2511H15.5307L15.5307 21.8666Z" fill="#FFC7C7"/>
<path d="M25.9126 15.7438H24.8022V13.3504C24.8022 13.0739 24.7108 12.8088 24.548 12.6131C24.3853 12.4173 24.1646 12.3069 23.9341 12.3064H22.893V11.3861L22.7365 11.1977V11.1957L20.4159 8.41081L17.9355 5.43701H10.1691V9.63542H8.49489C8.26448 9.63523 8.04352 9.74491 7.88043 9.94011C7.71732 10.1355 7.62546 10.4004 7.625 10.6769V27.3537H7.62653C7.62408 27.6144 7.70877 27.8654 7.86181 28.0507C8.01471 28.2359 8.22314 28.3399 8.44041 28.3393H22.6787C23.047 28.3393 23.3712 28.0412 23.4584 27.6481L26.7117 16.9461V16.8772C26.7117 16.2211 26.376 15.7441 25.9133 15.7441L25.9126 15.7438ZM23.9342 13.0709C24.0626 13.0714 24.1667 13.1963 24.1672 13.3505V15.7439H22.8931V13.0709L23.9342 13.0709ZM18.1213 6.73899L21.8075 11.1615H18.1216L18.1213 6.73899ZM10.806 6.20086H17.4865V11.9271H22.258V15.7441H11.674C11.6293 15.7436 11.5846 15.7478 11.5405 15.7571C11.2297 15.8187 10.9719 16.0886 10.896 16.435L10.8058 16.7292L10.806 6.20086ZM8.26179 10.6774C8.26224 10.5232 8.36631 10.3984 8.49479 10.398H10.1688L10.169 18.8097L8.26177 25.0577L8.26179 10.6774ZM22.8528 27.417C22.8305 27.5103 22.7596 27.575 22.6787 27.5755H8.44042C8.38487 27.5766 8.33208 27.5455 8.29882 27.4918C8.27898 27.46 8.24755 27.395 8.25869 27.3353L10.1691 21.0484V21.0502L11.4926 16.696L11.5018 16.666C11.5221 16.5715 11.593 16.5056 11.6744 16.5057H25.9126C26.034 16.5057 26.0649 16.7148 26.073 16.8187L22.8528 27.417Z" fill="white"/>
<path d="M12.7154 11.927H15.8966C16.0727 11.927 16.2155 11.7556 16.2155 11.5443C16.2155 11.333 16.0727 11.1616 15.8966 11.1616H12.7154C12.5393 11.1616 12.3965 11.333 12.3965 11.5443C12.3965 11.7556 12.5393 11.927 12.7154 11.927Z" fill="white"/>
<path d="M12.7154 9.25415H15.8966C16.0727 9.25415 16.2155 9.08277 16.2155 8.87146C16.2155 8.65998 16.0727 8.48877 15.8966 8.48877H12.7154C12.5393 8.48877 12.3965 8.65997 12.3965 8.87146C12.3965 9.08277 12.5393 9.25415 12.7154 9.25415Z" fill="white"/>
<path d="M12.7158 14.5973H20.3498C20.5251 14.5973 20.6672 14.4267 20.6672 14.2163C20.6672 14.0059 20.5251 13.8354 20.3498 13.8354H12.7158C12.5405 13.8354 12.3984 14.0059 12.3984 14.2163C12.3984 14.4267 12.5405 14.5973 12.7158 14.5973Z" fill="white"/>
</g>
<defs>
<clipPath id="clip0_302_894">
<rect width="20" height="24" fill="white" transform="translate(7 5)"/>
</clipPath>
</defs>
</svg>
