<svg width="34" height="34" viewBox="0 0 34 34" fill="none" xmlns="http://www.w3.org/2000/svg">
<rect width="34" height="34" rx="4" fill="#704407"/>
<g clip-path="url(#clip0_302_907)">
<mask id="mask0_302_907" style="mask-type:luminance" maskUnits="userSpaceOnUse" x="13" y="5" width="14" height="14">
<path d="M13.4844 5.19189H26.8398V18.2189H13.4844V5.19189Z" fill="white"/>
</mask>
<g mask="url(#mask0_302_907)">
<path d="M21.8078 6.28436L20.5905 7.7514C20.3483 8.01947 19.9752 8.01947 19.7331 7.7514L18.4678 6.22651C17.9228 5.56515 17.1796 5.19287 16.4045 5.19287C15.6292 5.19287 14.8861 5.56512 14.3411 6.22651C13.2014 7.60454 13.2014 9.82764 14.3411 11.2056L20.1622 18.219L25.9829 11.2051C26.5362 10.5379 26.8444 9.63297 26.8391 8.69143C26.8337 7.75009 26.5153 6.85032 25.9544 6.19225C24.7759 4.88157 22.9452 4.92203 21.8079 6.28416L21.8078 6.28436ZM15.8418 11.2231C15.7759 11.3022 15.6865 11.3467 15.5932 11.3467C15.4998 11.3467 15.4104 11.3022 15.3445 11.2231L14.8388 10.6137C14.033 9.64511 13.9645 8.10353 14.68 7.0375C14.7569 6.91463 14.8837 6.85165 15.0105 6.87325C15.1375 6.89504 15.2444 6.99795 15.2897 7.14169C15.3351 7.28561 15.3114 7.44765 15.2283 7.56466C14.7389 8.296 14.7866 9.35177 15.3389 10.0153L15.8447 10.6247C15.9106 10.7042 15.9475 10.8122 15.9469 10.9246C15.9465 11.0369 15.9086 11.1444 15.8418 11.2231ZM16.4105 6.87948C16.3795 6.87948 16.3493 6.87948 16.3191 6.88278H16.2962C16.1021 6.8901 15.9398 6.70718 15.9337 6.47427C15.9276 6.24136 16.08 6.04672 16.2741 6.0394C16.3182 6.03702 16.3624 6.03592 16.407 6.03592C16.6011 6.03537 16.7587 6.22378 16.7592 6.4567C16.7598 6.68961 16.6028 6.87875 16.4087 6.87948L16.4105 6.87948Z" fill="#FFA6A6"/>
</g>
<path d="M18.8789 24.5386L20.0455 23.7476H17.4766L18.547 24.545C18.6515 24.6096 18.776 24.6072 18.8789 24.5386Z" fill="black"/>
<mask id="mask1_302_907" style="mask-type:luminance" maskUnits="userSpaceOnUse" x="7" y="20" width="4" height="8">
<path d="M7.16016 20.3281H10.008V27.125H7.16016V20.3281Z" fill="white"/>
</mask>
<g mask="url(#mask1_302_907)">
<path d="M7.51157 27.1211H9.62016C9.81425 27.1211 9.97157 26.9323 9.97157 26.6994V26.4341L9.96806 21.1541C9.96806 21.1444 9.97081 21.1354 9.97157 21.1257V20.7952C9.97157 20.5623 9.81425 20.3735 9.62016 20.3735H7.51157C7.31747 20.3735 7.16016 20.5623 7.16016 20.7952V26.6991C7.16016 26.932 7.31747 27.1208 7.51157 27.1208V27.1211ZM8.21438 21.2172H8.91735C9.11144 21.2172 9.26876 21.406 9.26876 21.6389C9.26876 21.8718 9.11144 22.0606 8.91735 22.0606H8.21438C8.02029 22.0606 7.86297 21.8718 7.86297 21.6389C7.86297 21.406 8.02029 21.2172 8.21438 21.2172ZM8.21438 25.4343H8.91735C9.11144 25.4343 9.26876 25.6231 9.26876 25.856C9.26876 26.0889 9.11144 26.2777 8.91735 26.2777H8.21438C8.02029 26.2777 7.86297 26.0889 7.86297 25.856C7.86297 25.6231 8.02029 25.4343 8.21438 25.4343Z" fill="#D4B7B7"/>
</g>
<mask id="mask2_302_907" style="mask-type:luminance" maskUnits="userSpaceOnUse" x="10" y="20" width="17" height="9">
<path d="M10.6719 20.3281H26.8398V28.8078H10.6719V20.3281Z" fill="white"/>
</mask>
<g mask="url(#mask2_302_907)">
<path d="M26.2338 20.5185L25.4364 21.0596L25.4337 21.0616L19.2204 25.2745C19.1413 25.3275 19.0568 25.3681 18.9692 25.3952C18.9488 25.4016 18.9277 25.3998 18.907 25.4049C18.8413 25.4225 18.7745 25.4327 18.7074 25.4353H18.7055C18.6772 25.4353 18.6494 25.4252 18.6213 25.4221C18.5603 25.4188 18.4997 25.4087 18.4402 25.3923C18.352 25.3646 18.267 25.3236 18.1872 25.2703L16.1433 23.7476H14.8381C14.644 23.7476 14.4867 23.5589 14.4867 23.3259C14.4867 23.093 14.644 22.9041 14.8381 22.9041H21.1076C21.2172 22.9035 21.3221 22.851 21.3996 22.7583C21.4747 22.6668 21.5164 22.5433 21.5153 22.415C21.513 22.1751 21.3676 21.9721 21.1705 21.9329L20.5841 21.8137C20.5757 21.8129 20.5676 21.8117 20.5593 21.8098L13.7277 20.4096C13.2623 20.3206 12.7856 20.3737 12.3418 20.564L10.6738 21.4281V25.9363H10.6833C10.8215 25.9361 10.959 25.9612 11.091 26.0105L18.2453 28.7567C18.5709 28.871 18.9225 28.7913 19.1911 28.5425L26.6829 21.335C26.7816 21.2412 26.8393 21.0986 26.8396 20.9475C26.8393 20.8633 26.8216 20.7803 26.788 20.7064C26.6775 20.472 26.4303 20.3881 26.2341 20.5187L26.2338 20.5185Z" fill="white"/>
</g>
<path d="M21.9473 21.5465C21.9853 21.5992 22.0198 21.6556 22.0503 21.7151C22.0622 21.7378 22.0725 21.7611 22.083 21.7847C22.1073 21.8391 22.1283 21.8955 22.1459 21.9533C22.1533 21.9773 22.1614 22.001 22.1677 22.0255C22.1897 22.1079 22.2046 22.1927 22.2127 22.2785L24.6727 20.6097C24.3904 20.3691 24.0277 20.3098 23.7021 20.4508L21.7559 21.3339C21.7601 21.3377 21.7632 21.3427 21.7675 21.3462C21.8239 21.3963 21.8764 21.4527 21.9242 21.5148C21.933 21.5229 21.9393 21.5355 21.9473 21.5465Z" fill="white"/>
</g>
<defs>
<clipPath id="clip0_302_907">
<rect width="20" height="24" fill="white" transform="translate(7 5)"/>
</clipPath>
</defs>
</svg>
