<svg width="34" height="34" viewBox="0 0 34 34" fill="none" xmlns="http://www.w3.org/2000/svg">
<rect width="34" height="34" rx="4" fill="#704407"/>
<path d="M8.64252 29H20.8961C21.8002 29 22.5356 28.0966 22.5356 26.9863V26.8392L23.0367 27.7016C23.0665 27.753 23.1136 27.7803 23.1614 27.7803C23.192 27.7803 23.223 27.7691 23.2499 27.7455L26.9358 24.5268C26.9688 24.4979 26.9913 24.454 26.9979 24.4052C27.0046 24.3562 26.9951 24.3058 26.9716 24.2652L26.0028 22.5981C25.9538 22.5137 25.8585 22.4943 25.7894 22.5542L25.747 22.5912C25.9485 21.4522 25.7551 20.2521 25.1974 19.2922L24.2703 17.6967C24.0002 17.2309 23.4802 17.1379 23.1133 17.4584C22.9509 17.6004 22.8426 17.8009 22.7935 18.0197L22.615 17.7127C22.5823 17.6565 22.5455 17.6053 22.5053 17.5593H22.5352L22.5357 7.01387C22.5357 5.9035 21.8003 5.0002 20.8962 5.0002L8.64255 5C7.73683 5 7 5.90336 7 7.01367V26.9859C7 28.0963 7.73687 28.9998 8.64255 28.9998L8.64252 29ZM25.8426 22.9678L26.6339 24.3297L23.1972 27.3309L22.5357 26.1925V25.8558L22.5589 25.8354L25.5713 23.2047V23.2045L25.8426 22.9678ZM22.9174 18.878C22.9664 18.9624 23.0619 18.9822 23.1308 18.9219C23.1996 18.8618 23.2156 18.7447 23.1666 18.6603C22.999 18.372 23.055 17.9697 23.2911 17.7633C23.5309 17.5543 23.8555 17.6276 24.0215 17.9135L24.9486 19.509C25.5257 20.5019 25.6758 21.778 25.3542 22.9338L22.4208 25.4955C21.8375 25.4933 21.27 25.2911 20.779 24.9106L18.7715 23.3543C18.3854 23.052 18.1363 22.824 18.1908 22.4276C18.2526 21.9956 18.5854 21.7162 18.9239 21.786L19.77 21.9602C19.8316 21.9734 19.8922 21.9392 19.925 21.8746C19.9579 21.8103 19.9558 21.7281 19.92 21.6664L17.8757 18.1483C17.7052 17.8549 17.7386 17.4472 17.95 17.2394C18.1895 17.0036 18.5351 17.0653 18.7096 17.3654L19.8704 19.3633C19.9196 19.4477 20.0149 19.4675 20.0838 19.4072C20.1526 19.3471 20.1686 19.23 20.1196 19.1456L20.1186 19.1444C20.038 19.0046 20.0062 18.8344 20.0294 18.6649C20.0526 18.4949 20.1286 18.3462 20.2429 18.2464C20.4739 18.0443 20.8019 18.1019 20.9745 18.399L21.2616 18.8933C21.2617 18.8935 21.2617 18.8937 21.2617 18.8937C21.3111 18.9785 21.4064 18.9981 21.4751 18.9378C21.5439 18.8777 21.5599 18.7606 21.5109 18.6762C21.3435 18.3878 21.3986 17.986 21.6336 17.7806C21.8717 17.5728 22.1977 17.64 22.3659 17.9293L22.9174 18.878ZM20.5719 17.7581C20.3917 17.7526 20.2121 17.8133 20.0655 17.9412C19.9074 18.079 19.796 18.276 19.7457 18.5027L18.9587 17.1482C18.6793 16.668 18.1308 16.5814 17.7585 16.9471C17.4171 17.283 17.3592 17.9062 17.6264 18.3661L19.4565 21.5154L18.9746 21.4162C18.4718 21.3118 17.9804 21.7256 17.8891 22.3642C17.7969 23.0364 18.2458 23.388 18.6074 23.6708L20.5717 25.1936V26.5922H8.96668V7.40754H20.5717L20.5719 17.7581ZM7.61145 7.01383C7.61145 6.31688 8.07381 5.75005 8.64232 5.75005H20.8959C21.4627 5.75005 21.9237 6.31688 21.9237 7.01383V17.2869C21.7579 17.2911 21.5947 17.3549 21.4564 17.4757C21.2904 17.6207 21.1812 17.8271 21.1343 18.0519C21.0604 17.9607 20.9729 17.8911 20.8776 17.8401V7.22033C20.8776 7.11673 20.8092 7.0329 20.7247 7.0329L8.81333 7.0327C8.72883 7.0327 8.66045 7.11653 8.66045 7.22013V26.7799C8.66045 26.8835 8.72883 26.9673 8.81333 26.9673H20.7243C20.8088 26.9673 20.8772 26.8835 20.8772 26.7799V25.4004C21.2062 25.6082 21.5574 25.7549 21.9233 25.8222V26.9861C21.9233 27.683 21.4623 28.2498 20.8955 28.2498H8.64192C8.07341 28.2498 7.61105 27.683 7.61105 26.9861L7.61145 7.01383Z" fill="white"/>
<path d="M14.0381 10.1921H19.5984C19.725 10.1921 19.8279 10.0661 19.8279 9.91074C19.8279 9.75553 19.7252 9.62939 19.5984 9.62939L14.0381 9.62959C13.9115 9.62959 13.8086 9.75553 13.8086 9.91093C13.8088 10.0661 13.9115 10.1921 14.0381 10.1921Z" fill="white"/>
<path d="M10.4622 10.9668C10.5017 11.024 10.5582 11.0596 10.619 11.0655C10.6253 11.0661 10.6314 11.0665 10.6375 11.0665C10.692 11.0665 10.7449 11.0428 10.7865 10.9989L12.4546 9.25032C12.5508 9.14948 12.5623 8.97174 12.4799 8.85391C12.398 8.73588 12.2528 8.72184 12.1565 8.82287L10.6636 10.3877L10.2093 9.72936C10.1274 9.61113 9.98259 9.59611 9.88599 9.69615C9.78922 9.79659 9.77713 9.97393 9.85889 10.0926L10.4622 10.9668Z" fill="#D5FFCE"/>
<path d="M14.0381 13.6974H19.5984C19.725 13.6974 19.8279 13.5715 19.8279 13.4161C19.8279 13.2609 19.7252 13.1348 19.5984 13.1348L14.0381 13.135C13.9115 13.135 13.8086 13.2609 13.8086 13.4163C13.8088 13.5715 13.9115 13.6974 14.0381 13.6974Z" fill="white"/>
<path d="M10.4622 14.4717C10.5017 14.5288 10.5582 14.5644 10.619 14.5703C10.6253 14.5709 10.6314 14.5713 10.6375 14.5713C10.692 14.5713 10.7449 14.5476 10.7865 14.5037L12.4546 12.7551C12.5508 12.6543 12.5623 12.4766 12.4799 12.3587C12.398 12.2409 12.2528 12.2267 12.1565 12.3277L10.6636 13.8926L10.2093 13.2342C10.1274 13.1158 9.98259 13.1009 9.88599 13.201C9.78922 13.3014 9.77713 13.4787 9.85889 13.5974L10.4622 14.4717Z" fill="#D5FFCE"/>
<path d="M14.0381 17.2023H16.7013C16.8279 17.2023 16.9308 17.0764 16.9308 16.921C16.9308 16.7658 16.8281 16.6396 16.7013 16.6396H14.0381C13.9115 16.6396 13.8086 16.7656 13.8086 16.921C13.8088 17.0764 13.9115 17.2023 14.0381 17.2023Z" fill="white"/>
<path d="M10.4622 17.9766C10.5017 18.0337 10.5582 18.0693 10.619 18.0753C10.6253 18.0759 10.6314 18.0763 10.6375 18.0763C10.692 18.0763 10.7449 18.0525 10.7865 18.0086L12.4546 16.2601C12.5508 16.1592 12.5623 15.9817 12.4799 15.8637C12.398 15.7456 12.2528 15.7316 12.1565 15.8326L10.6636 17.3973L10.2093 16.7389C10.1274 16.6207 9.98259 16.6057 9.88599 16.7057C9.78922 16.8061 9.77713 16.9835 9.85889 17.1021L10.4622 17.9766Z" fill="#D5FFCE"/>
<path d="M14.0381 20.7072H17.1721C17.2987 20.7072 17.4016 20.5813 17.4016 20.4259C17.4016 20.2707 17.2988 20.1445 17.1721 20.1445H14.0381C13.9115 20.1445 13.8086 20.2705 13.8086 20.4259C13.8088 20.5811 13.9115 20.7072 14.0381 20.7072Z" fill="white"/>
<path d="M10.4622 21.4825C10.5017 21.5396 10.5582 21.5752 10.619 21.5811C10.6253 21.5817 10.6314 21.5821 10.6375 21.5821C10.692 21.5821 10.7449 21.5584 10.7865 21.5145L12.4546 19.7659C12.5508 19.6651 12.5623 19.4876 12.4799 19.3695C12.398 19.2515 12.2528 19.2375 12.1565 19.3385L10.6636 20.9032L10.2093 20.2448C10.1274 20.1264 9.98259 20.1113 9.88599 20.2116C9.78922 20.312 9.77713 20.4894 9.85889 20.608L10.4622 21.4825Z" fill="#D5FFCE"/>
<path d="M14.0381 24.2126H17.1721C17.2987 24.2126 17.4016 24.0866 17.4016 23.9312C17.4016 23.776 17.2988 23.6499 17.1721 23.6499H14.0381C13.9115 23.6499 13.8086 23.7758 13.8086 23.9312C13.8088 24.0866 13.9115 24.2126 14.0381 24.2126Z" fill="white"/>
<path d="M12.1565 22.844L10.6636 24.4087L10.2093 23.7505C10.1274 23.6323 9.98256 23.6171 9.88596 23.7175C9.78919 23.8177 9.7771 23.9953 9.85903 24.1137L10.4623 24.9878C10.5018 25.0449 10.5583 25.0805 10.6191 25.0865C10.6254 25.0871 10.6315 25.0875 10.6376 25.0875C10.6921 25.0875 10.745 25.0637 10.7867 25.0198L12.4547 23.2713C12.551 23.1704 12.5624 22.9929 12.48 22.8749C12.3979 22.7568 12.253 22.7428 12.1565 22.844Z" fill="#D5FFCE"/>
</svg>
