<svg width="34" height="34" viewBox="0 0 34 34" fill="none" xmlns="http://www.w3.org/2000/svg">
<rect width="34" height="34" rx="4" fill="#704407"/>
<path d="M12.4999 14.0003C13.605 14.0003 14.4998 13.1053 14.4998 12.0004C14.4998 10.8953 13.6048 10.0005 12.4999 10.0005C11.3948 10.0005 10.5 10.8955 10.5 12.0004C10.5 13.1055 11.395 14.0003 12.4999 14.0003ZM12.4999 11.0004C13.05 11.0004 13.4999 11.4505 13.4999 12.0004C13.4999 12.5505 13.0498 13.0004 12.4999 13.0004C11.9498 13.0004 11.5 12.5503 11.5 12.0004C11.5 11.4503 11.95 11.0004 12.4999 11.0004Z" fill="white"/>
<path d="M15.5001 18.0007C15.775 18.0007 16.0001 17.7758 16.0001 17.5006V17.2306C16.0001 15.7257 14.7753 14.5005 13.2701 14.5005H11.7252C10.2252 14.5007 9 15.7256 9 17.2308V17.5006C9 17.7756 9.22492 18.0007 9.50009 18.0007H15.5001ZM11.7301 15.5007H13.275C14.15 15.5007 14.8751 16.1557 14.9851 17.0008H10.0151C10.1251 16.1557 10.855 15.5007 11.7301 15.5007Z" fill="white"/>
<path d="M7.50003 28H26.4999C26.7748 28 27 27.7751 27 27.4999V6.99991C27 6.72497 26.7751 6.49981 26.4999 6.49981H21.415C21.2101 5.9197 20.66 5.49985 20.0049 5.49985H18.9299C18.7152 4.63994 17.9301 4 17.0002 4C16.0703 4 15.2852 4.63988 15.0652 5.50003H14.0101C13.3602 5.50003 12.8101 5.92011 12.6001 6.49999L7.50009 6.49976C7.22515 6.49976 7 6.72468 7 6.99985V27.4998C7.00023 27.7748 7.22515 27.9999 7.50009 27.9999L7.50003 28ZM13.51 7.00517V7.00029C13.51 6.72535 13.7349 6.50019 14.0101 6.50019L15.5001 6.49996C15.775 6.49996 16.0002 6.27504 16.0002 5.99987C16.0002 5.44976 16.4503 4.99991 17.0001 4.99991C17.5502 4.99991 18.0001 5.44999 18.0001 5.99987C18.0001 6.2748 18.225 6.49996 18.5002 6.49996H20.0102C20.2851 6.49996 20.5103 6.72488 20.5103 7.00005V7.50015H13.5107L13.51 7.00517ZM8.00015 7.50015H12.51V8.00024C12.51 8.27518 12.735 8.50033 13.0101 8.50033H21.0101C21.285 8.50033 21.5102 8.27541 21.5102 8.00024V7.50015H26.0001V27.0004H7.99996L8.00015 7.50015Z" fill="white"/>
<path d="M17.5001 13.0007H22.5001C22.775 13.0007 23.0002 12.7757 23.0002 12.5006C23.0002 12.2256 22.7753 12.0005 22.5001 12.0005L17.5001 12.0007C17.2252 12.0007 17 12.2256 17 12.5008C17.0002 12.7758 17.2252 13.0007 17.5001 13.0007Z" fill="white"/>
<path d="M24.0001 14.5005H17.5001C17.2252 14.5005 17 14.7254 17 15.0006C17 15.2755 17.2249 15.5007 17.5001 15.5007H24.0001C24.275 15.5007 24.5002 15.2758 24.5002 15.0006C24.5 14.7254 24.275 14.5005 24.0001 14.5005Z" fill="white"/>
<path d="M23.998 19.5005H9.99814C9.7232 19.5005 9.49805 19.7254 9.49805 20.0006C9.49805 20.2755 9.72297 20.5007 9.99814 20.5007H23.998C24.2729 20.5007 24.498 20.2758 24.498 20.0006C24.498 19.7254 24.2731 19.5005 23.9982 19.5005H23.998Z" fill="white"/>
<path d="M23.998 22.0005H9.99814C9.7232 22.0005 9.49805 22.2254 9.49805 22.5006C9.49805 22.7755 9.72297 23.0007 9.99814 23.0007H23.998C24.2729 23.0007 24.498 22.7757 24.498 22.5006C24.498 22.2254 24.2731 22.0005 23.9982 22.0005H23.998Z" fill="white"/>
<path d="M23.998 24.5005H9.99814C9.7232 24.5005 9.49805 24.7254 9.49805 25.0006C9.49805 25.2755 9.72297 25.5007 9.99814 25.5007H23.998C24.2729 25.5007 24.498 25.2757 24.498 25.0006C24.498 24.7254 24.2731 24.5005 23.9982 24.5005H23.998Z" fill="white"/>
</svg>
